<?xml version="1.0" encoding="UTF-8" standalone="no"?>
<!-- Created with Inkscape (http://www.inkscape.org/) -->

<svg
   xmlns:dc="http://purl.org/dc/elements/1.1/"
   xmlns:cc="http://creativecommons.org/ns#"
   xmlns:rdf="http://www.w3.org/1999/02/22-rdf-syntax-ns#"
   xmlns:svg="http://www.w3.org/2000/svg"
   xmlns="http://www.w3.org/2000/svg"
   xmlns:sodipodi="http://sodipodi.sourceforge.net/DTD/sodipodi-0.dtd"
   xmlns:inkscape="http://www.inkscape.org/namespaces/inkscape"
   width="744.09448819"
   height="1052.3622047"
   id="svg8334"
   version="1.1"
   inkscape:version="0.48.2 r9819"
   sodipodi:docname="enemy6_1.svg"
   inkscape:export-filename="/Users/andy/Documents/Projects/Test/Aliens/gfx/enemy6_1.png"
   inkscape:export-xdpi="65"
   inkscape:export-ydpi="65">
  <defs
     id="defs8336" />
  <sodipodi:namedview
     id="base"
     pagecolor="#ffffff"
     bordercolor="#666666"
     borderopacity="1.0"
     inkscape:pageopacity="0.0"
     inkscape:pageshadow="2"
     inkscape:zoom="1.4"
     inkscape:cx="358.2728"
     inkscape:cy="862.16111"
     inkscape:document-units="px"
     inkscape:current-layer="layer1"
     showgrid="false"
     inkscape:window-width="1237"
     inkscape:window-height="756"
     inkscape:window-x="43"
     inkscape:window-y="0"
     inkscape:window-maximized="0" />
  <metadata
     id="metadata8339">
    <rdf:RDF>
      <cc:Work
         rdf:about="">
        <dc:format>image/svg+xml</dc:format>
        <dc:type
           rdf:resource="http://purl.org/dc/dcmitype/StillImage" />
        <dc:title></dc:title>
      </cc:Work>
    </rdf:RDF>
  </metadata>
  <g
     inkscape:label="Layer 1"
     inkscape:groupmode="layer"
     id="layer1">
    <path
       style="fill:#ffe680;stroke:#000000;stroke-width:1.16795158000000021px;stroke-linecap:butt;stroke-linejoin:miter;stroke-opacity:1"
       d="m 269.46702,234.51869 c 0,0 -91.4143,27.45982 -84.16277,-56.85196 7.25156,-84.311772 91.31303,-43.17393 91.31303,-43.17393 l 94.68876,3.94801 -67.18584,30.24281 60.53885,6.21909 -70.07062,26.67145 73.03534,2.63411 z"
       id="path8342"
       inkscape:connector-curvature="0"
       sodipodi:nodetypes="csccccccc" />
    <path
       sodipodi:type="arc"
       style="fill:#008000;fill-opacity:1;fill-rule:nonzero;stroke:#000000;stroke-width:0.61500001000000004;stroke-linecap:butt;stroke-miterlimit:4;stroke-opacity:1;stroke-dasharray:none"
       id="path8344"
       sodipodi:cx="231.42857"
       sodipodi:cy="162.36218"
       sodipodi:rx="20"
       sodipodi:ry="18.571428"
       d="m 240.85318,145.98199 a 20,18.571428 0 1 1 -3.2334,-1.279"
       sodipodi:start="5.2030742"
       sodipodi:end="11.310305"
       sodipodi:open="true" />
    <path
       sodipodi:type="arc"
       style="fill:#ff0000;fill-opacity:1;fill-rule:nonzero;stroke:#000000;stroke-width:0.61500001000000004;stroke-linecap:butt;stroke-miterlimit:4;stroke-opacity:1;stroke-dasharray:none"
       id="path8346"
       sodipodi:cx="237.14285"
       sodipodi:cy="160.21933"
       sodipodi:rx="5.7142859"
       sodipodi:ry="6.4285712"
       d="m 239.8356,154.54926 a 5.7142859,6.4285712 0 1 1 -0.92383,-0.44273"
       sodipodi:start="5.2030742"
       sodipodi:end="11.310305"
       sodipodi:open="true"
       transform="matrix(1.7196535,0,0,1.4175268,-174.94639,-64.038811)" />
    <path
       style="fill:none;stroke:#000000;stroke-width:1px;stroke-linecap:butt;stroke-linejoin:miter;stroke-opacity:1"
       d="m 190,215.21933 c 1.90476,0 3.80952,0 5.71429,0 0.47619,-0.4762 0.78969,-1.21562 1.42857,-1.42858 1.80701,-0.60233 3.86639,0.46198 5.71428,0 1.03301,-0.25825 1.83332,-1.13605 2.85715,-1.42857 2.33468,-0.66705 4.80817,-0.76152 7.14285,-1.42857 1.02383,-0.29252 1.82414,-1.17032 2.85715,-1.42857 1.17304,-0.29326 5.36794,0.34634 5.71428,0 0.67344,-0.67344 -0.42592,-2.00531 0,-2.85714 0.21296,-0.42592 1.00266,0.21296 1.42857,0 0.60234,-0.30117 0.82624,-1.12741 1.42857,-1.42857 0.42592,-0.21296 1.09186,0.33671 1.42858,0 0.33671,-0.33672 -0.33672,-1.09186 0,-1.42858 0.33671,-0.33671 1.00265,0.21296 1.42857,0 0.60234,-0.30117 0.82623,-1.1274 1.42857,-1.42857 0.42592,-0.21296 1.42857,-0.47619 1.42857,0 0,0.47619 -1.90476,0 -1.42857,0 0.95238,0 1.90476,0 2.85714,0 0.47619,0 1.09186,0.33672 1.42857,0 0.33672,-0.33672 0,-0.95238 0,-1.42857"
       id="path8348"
       inkscape:connector-curvature="0" />
    <path
       style="fill:#ccffaa;stroke:#000000;stroke-width:1px;stroke-linecap:butt;stroke-linejoin:miter;stroke-opacity:1"
       d="M 208.57143,210.93361 210,189.50504 l 11.42857,17.14286 4.28572,-21.42857 8.57142,17.14285 z"
       id="path8350"
       inkscape:connector-curvature="0" />
  </g>
</svg>
