<?xml version="1.0" encoding="UTF-8" standalone="no"?>
<!-- Created with Inkscape (http://www.inkscape.org/) -->

<svg
   xmlns:dc="http://purl.org/dc/elements/1.1/"
   xmlns:cc="http://creativecommons.org/ns#"
   xmlns:rdf="http://www.w3.org/1999/02/22-rdf-syntax-ns#"
   xmlns:svg="http://www.w3.org/2000/svg"
   xmlns="http://www.w3.org/2000/svg"
   xmlns:sodipodi="http://sodipodi.sourceforge.net/DTD/sodipodi-0.dtd"
   xmlns:inkscape="http://www.inkscape.org/namespaces/inkscape"
   width="744.09448819"
   height="1052.3622047"
   id="svg6367"
   version="1.1"
   inkscape:version="0.48.2 r9819"
   sodipodi:docname="enemy2.svg"
   inkscape:export-filename="/Users/andy/Documents/Projects/Test/Aliens/gfx/enemy2_2.png"
   inkscape:export-xdpi="41.360001"
   inkscape:export-ydpi="41.360001">
  <defs
     id="defs6369" />
  <sodipodi:namedview
     id="base"
     pagecolor="#ffffff"
     bordercolor="#666666"
     borderopacity="1.0"
     inkscape:pageopacity="0.0"
     inkscape:pageshadow="2"
     inkscape:zoom="0.98994949"
     inkscape:cx="375"
     inkscape:cy="826.50149"
     inkscape:document-units="px"
     inkscape:current-layer="layer1"
     showgrid="false"
     inkscape:window-width="1237"
     inkscape:window-height="756"
     inkscape:window-x="43"
     inkscape:window-y="0"
     inkscape:window-maximized="1" />
  <metadata
     id="metadata6372">
    <rdf:RDF>
      <cc:Work
         rdf:about="">
        <dc:format>image/svg+xml</dc:format>
        <dc:type
           rdf:resource="http://purl.org/dc/dcmitype/StillImage" />
        <dc:title></dc:title>
      </cc:Work>
    </rdf:RDF>
  </metadata>
  <g
     inkscape:label="Layer 1"
     inkscape:groupmode="layer"
     id="layer1">
    <path
       style="fill:#008000;stroke:#000000;stroke-width:1px;stroke-linecap:butt;stroke-linejoin:miter;stroke-opacity:1"
       d="m 277.79195,230.09801 -238.396,-60.60915 12.12183,-54.54824 240.41631,89.90358 0,0"
       id="path6437"
       inkscape:connector-curvature="0"
       sodipodi:nodetypes="ccccc" />
    <path
       style="fill:#008000;stroke:#000000;stroke-width:1px;stroke-linecap:butt;stroke-linejoin:miter;stroke-opacity:1"
       d="m 283.85287,193.73252 -13.13199,38.3858 -10.10152,-2.02031 -4.04061,25.25381 -23.23351,0 -6.06092,36.3655 -20.20305,-7.07107 -4.04061,40.4061 -14.14213,-8.08122 7.07106,150.51273 18.18275,-3.03046 8.08122,-101.01525 55.55839,6.06091 6.06092,91.92388 17.17259,-2.0203 0,-92.93404 60.60915,0 3.03046,82.83251 17.17259,-1.01015 5.05076,-77.78175 c 0,0 42.42641,15.15229 71.72084,-2.0203 29.29442,-17.17259 3.03045,-50.50763 3.03045,-50.50763 l -34.34518,-31.31473 0,-48.48732 -77.78175,-29.29442 -13.13198,3.03045 z"
       id="path6439"
       inkscape:connector-curvature="0" />
    <path
       style="fill:#008000;stroke:#000000;stroke-width:1px;stroke-linecap:butt;stroke-linejoin:miter;stroke-opacity:1"
       d="m 318.19805,134.13352 -12.12183,40.4061 12.12183,3.03046 13.13198,-40.4061 z"
       id="path6445"
       inkscape:connector-curvature="0" />
    <path
       sodipodi:type="arc"
       style="fill:#b3b3b3;fill-opacity:1;fill-rule:nonzero;stroke:#000000;stroke-width:0.61500001;stroke-linecap:butt;stroke-miterlimit:4;stroke-opacity:1;stroke-dasharray:none"
       id="path6443"
       sodipodi:cx="330.31989"
       sodipodi:cy="130.59799"
       sodipodi:rx="14.142136"
       sodipodi:ry="13.637059"
       d="m 344.46202,130.59799 a 14.142136,13.637059 0 1 1 -28.28427,0 14.142136,13.637059 0 1 1 28.28427,0 z"
       transform="translate(-4.0406102,-2.0203051)" />
    <path
       sodipodi:type="arc"
       style="fill:#00ffff;fill-opacity:1;fill-rule:nonzero;stroke:#000000;stroke-width:0.61500001000000004;stroke-linecap:butt;stroke-miterlimit:4;stroke-opacity:1;stroke-dasharray:none"
       id="path6441"
       sodipodi:cx="309.61176"
       sodipodi:cy="187.6716"
       sodipodi:rx="20.708128"
       sodipodi:ry="21.213203"
       d="m 330.31988,187.6716 a 20.708128,21.213203 0 1 1 -41.41625,0 20.708128,21.213203 0 1 1 41.41625,0 z" />
    <path
       style="fill:#ff0000;stroke:#000000;stroke-width:1px;stroke-linecap:butt;stroke-linejoin:miter;stroke-opacity:1"
       d="m 256.42857,258.07646 20.71429,4.28572 2.14285,7.14286 12.14286,4.28571 4.28572,13.57143 L 285,283.79075 l -2.14286,10.71429 -15.71428,1.42857 -7.85715,5 L 230,294.50504 l 5.71429,-36.42858 z"
       id="path6447"
       inkscape:connector-curvature="0" />
    <path
       sodipodi:type="arc"
       style="fill:#008000;fill-opacity:1;fill-rule:nonzero;stroke:#000000;stroke-width:0.61500001000000004;stroke-linecap:butt;stroke-miterlimit:4;stroke-opacity:1;stroke-dasharray:none"
       id="path6449"
       sodipodi:cx="327.14285"
       sodipodi:cy="127.36218"
       sodipodi:rx="5"
       sodipodi:ry="5"
       d="m 332.14285,127.36218 a 5,5 0 1 1 -10,0 5,5 0 1 1 10,0 z"
       transform="translate(-1.4285714,0.71428572)" />
    <path
       sodipodi:type="star"
       style="fill:#ff6600;fill-opacity:1;fill-rule:nonzero;stroke:#000000;stroke-width:0.61500001000000004;stroke-linecap:butt;stroke-miterlimit:4;stroke-opacity:1;stroke-dasharray:none"
       id="path6451"
       sodipodi:sides="5"
       sodipodi:cx="325.26912"
       sodipodi:cy="268.48381"
       sodipodi:r1="25.753938"
       sodipodi:r2="12.876969"
       sodipodi:arg1="2.300696"
       sodipodi:arg2="2.9290145"
       inkscape:flatsided="false"
       inkscape:rounded="0"
       inkscape:randomized="0"
       d="m 308.09654,287.67669 4.58548,-16.4761 -10.97304,-13.11797 17.0867,-0.73034 9.08507,-14.48966 5.97468,16.02473 16.58793,4.16286 -13.39415,10.63417 1.16683,17.06245 -14.25271,-9.45245 z"
       inkscape:transform-center-x="-0.80703409"
       inkscape:transform-center-y="-1.6790698" />
    <path
       sodipodi:type="arc"
       style="fill:#ff6600;fill-opacity:1;fill-rule:nonzero;stroke:#000000;stroke-width:0.61500001;stroke-linecap:butt;stroke-miterlimit:4;stroke-opacity:1;stroke-dasharray:none"
       id="path6453"
       sodipodi:cx="287.89346"
       sodipodi:cy="302.32391"
       sodipodi:rx="5.0507627"
       sodipodi:ry="0.50507629"
       d="m 292.94423,302.32391 a 5.0507627,0.50507629 0 1 1 -10.10153,0 5.0507627,0.50507629 0 1 1 10.10153,0 z" />
    <path
       sodipodi:type="arc"
       style="fill:#a02c2c;fill-opacity:1;fill-rule:nonzero;stroke:#000000;stroke-width:0.61500001000000004;stroke-linecap:butt;stroke-miterlimit:4;stroke-opacity:1;stroke-dasharray:none"
       id="path6455"
       sodipodi:cx="350.01785"
       sodipodi:cy="323.53711"
       sodipodi:rx="13.637059"
       sodipodi:ry="11.616755"
       d="m 363.65491,323.53711 a 13.637059,11.616755 0 1 1 -27.27412,0 13.637059,11.616755 0 1 1 27.27412,0 z" />
    <path
       sodipodi:type="arc"
       style="fill:#a02c2c;fill-opacity:1;fill-rule:nonzero;stroke:#000000;stroke-width:0.61500001000000004;stroke-linecap:butt;stroke-miterlimit:4;stroke-opacity:1;stroke-dasharray:none"
       id="path6457"
       sodipodi:cx="288.90363"
       sodipodi:cy="323.03204"
       sodipodi:rx="15.152288"
       sodipodi:ry="13.131983"
       d="m 304.05591,323.03204 a 15.152288,13.131983 0 1 1 -30.30457,0 15.152288,13.131983 0 1 1 30.30457,0 z" />
    <path
       sodipodi:type="arc"
       style="fill:#a02c2c;fill-opacity:1;fill-rule:nonzero;stroke:#000000;stroke-width:0.61500001000000004;stroke-linecap:butt;stroke-miterlimit:4;stroke-opacity:1;stroke-dasharray:none"
       id="path6459"
       sodipodi:cx="368.70569"
       sodipodi:cy="296.263"
       sodipodi:rx="8.0812206"
       sodipodi:ry="9.5964489"
       d="m 376.78691,296.263 a 8.0812206,9.5964489 0 1 1 -16.16244,0 8.0812206,9.5964489 0 1 1 16.16244,0 z" />
    <path
       sodipodi:type="arc"
       style="fill:#a02c2c;fill-opacity:1;fill-rule:nonzero;stroke:#000000;stroke-width:0.61500001000000004;stroke-linecap:butt;stroke-miterlimit:4;stroke-opacity:1;stroke-dasharray:none"
       id="path6461"
       sodipodi:cx="379.31229"
       sodipodi:cy="261.91782"
       sodipodi:rx="8.586297"
       sodipodi:ry="10.606602"
       d="m 387.89858,261.91782 a 8.586297,10.606602 0 1 1 -17.17259,0 8.586297,10.606602 0 1 1 17.17259,0 z" />
    <path
       sodipodi:type="arc"
       style="fill:#a02c2c;fill-opacity:1;fill-rule:nonzero;stroke:#000000;stroke-width:0.61500001000000004;stroke-linecap:butt;stroke-miterlimit:4;stroke-opacity:1;stroke-dasharray:none"
       id="path6463"
       sodipodi:cx="415.67776"
       sodipodi:cy="328.58789"
       sodipodi:rx="10.606602"
       sodipodi:ry="6.5659914"
       d="m 426.28437,328.58789 a 10.606602,6.5659914 0 1 1 -21.21321,0 10.606602,6.5659914 0 1 1 21.21321,0 z" />
    <path
       sodipodi:type="arc"
       style="fill:#0000ff;fill-opacity:1;fill-rule:nonzero;stroke:#000000;stroke-width:0.61500001;stroke-linecap:butt;stroke-miterlimit:4;stroke-opacity:1;stroke-dasharray:none"
       id="path6465"
       sodipodi:cx="416.68793"
       sodipodi:cy="278.58533"
       sodipodi:rx="0.50507629"
       sodipodi:ry="12.121831"
       d="m 417.193,278.58533 a 0.50507629,12.121831 0 1 1 -1.01015,0 0.50507629,12.121831 0 1 1 1.01015,0 z" />
    <path
       sodipodi:type="arc"
       style="fill:#a02c2c;fill-opacity:1;fill-rule:nonzero;stroke:#000000;stroke-width:0.61500001000000004;stroke-linecap:butt;stroke-miterlimit:4;stroke-opacity:1;stroke-dasharray:none"
       id="path6467"
       sodipodi:cx="400.02042"
       sodipodi:cy="295.25284"
       sodipodi:rx="5.0507627"
       sodipodi:ry="6.5659914"
       d="m 405.07118,295.25284 a 5.0507627,6.5659914 0 1 1 -10.10153,0 5.0507627,6.5659914 0 1 1 10.10153,0 z" />
    <path
       sodipodi:type="arc"
       style="fill:#ff0000;fill-opacity:1;fill-rule:nonzero;stroke:#000000;stroke-width:0.61500001000000004;stroke-linecap:butt;stroke-miterlimit:4;stroke-opacity:1;stroke-dasharray:none"
       id="path6469"
       sodipodi:cx="307.59146"
       sodipodi:cy="188.17668"
       sodipodi:rx="11.616755"
       sodipodi:ry="7.5761442"
       d="m 319.20822,188.17668 a 11.616755,7.5761442 0 1 1 -23.23351,0 11.616755,7.5761442 0 1 1 23.23351,0 z"
       transform="translate(2.0203051,0)" />
    <path
       sodipodi:type="arc"
       style="fill:#ffff00;fill-opacity:1;fill-rule:nonzero;stroke:#000000;stroke-width:0.61500001;stroke-linecap:butt;stroke-miterlimit:4;stroke-opacity:1;stroke-dasharray:none"
       id="path6471"
       sodipodi:cx="244.96199"
       sodipodi:cy="271.51425"
       sodipodi:rx="4.5456862"
       sodipodi:ry="4.0406103"
       d="m 249.50768,271.51425 a 4.5456862,4.0406103 0 1 1 -9.09138,0 4.5456862,4.0406103 0 1 1 9.09138,0 z" />
    <path
       sodipodi:type="arc"
       style="fill:#ffff00;fill-opacity:1;fill-rule:nonzero;stroke:#000000;stroke-width:0.61500001;stroke-linecap:butt;stroke-miterlimit:4;stroke-opacity:1;stroke-dasharray:none"
       id="path6473"
       sodipodi:cx="265.6701"
       sodipodi:cy="275.55487"
       sodipodi:rx="4.0406103"
       sodipodi:ry="4.0406103"
       d="m 269.71072,275.55487 a 4.0406103,4.0406103 0 1 1 -8.08123,0 4.0406103,4.0406103 0 1 1 8.08123,0 z" />
  </g>
</svg>
