<?xml version="1.0" encoding="UTF-8" standalone="no"?>
<!-- Created with Inkscape (http://www.inkscape.org/) -->

<svg
   xmlns:dc="http://purl.org/dc/elements/1.1/"
   xmlns:cc="http://creativecommons.org/ns#"
   xmlns:rdf="http://www.w3.org/1999/02/22-rdf-syntax-ns#"
   xmlns:svg="http://www.w3.org/2000/svg"
   xmlns="http://www.w3.org/2000/svg"
   xmlns:sodipodi="http://sodipodi.sourceforge.net/DTD/sodipodi-0.dtd"
   xmlns:inkscape="http://www.inkscape.org/namespaces/inkscape"
   width="744.09448819"
   height="1052.3622047"
   id="svg5624"
   version="1.1"
   inkscape:version="0.48.2 r9819"
   sodipodi:docname="Новый документ 18">
  <defs
     id="defs5626" />
  <sodipodi:namedview
     id="base"
     pagecolor="#ffffff"
     bordercolor="#666666"
     borderopacity="1.0"
     inkscape:pageopacity="0.0"
     inkscape:pageshadow="2"
     inkscape:zoom="1.4"
     inkscape:cx="332.0902"
     inkscape:cy="806.08111"
     inkscape:document-units="px"
     inkscape:current-layer="layer1"
     showgrid="false"
     inkscape:window-width="1241"
     inkscape:window-height="763"
     inkscape:window-x="42"
     inkscape:window-y="0"
     inkscape:window-maximized="0" />
  <metadata
     id="metadata5629">
    <rdf:RDF>
      <cc:Work
         rdf:about="">
        <dc:format>image/svg+xml</dc:format>
        <dc:type
           rdf:resource="http://purl.org/dc/dcmitype/StillImage" />
        <dc:title></dc:title>
      </cc:Work>
    </rdf:RDF>
  </metadata>
  <g
     inkscape:label="Layer 1"
     inkscape:groupmode="layer"
     id="layer1">
    <path
       style="fill:#0066ff;stroke:#000000;stroke-width:1px;stroke-linecap:butt;stroke-linejoin:miter;stroke-opacity:1"
       d="m 204.34668,122.30755 42.4264,-1.01015 c 0,0 -2.0203,108.08632 20.20305,101.01525 22.22336,-7.07106 189.90868,131.31983 189.90868,131.31983 l 17.1726,0 8.08122,19.1929 -33.97754,2.43873 -160.76654,-135.21686 -67.89559,23.68166 -18.18274,-51.51778 -7.07107,-46.46702 10.10153,1.01015 z"
       id="path5694"
       inkscape:connector-curvature="0"
       sodipodi:nodetypes="ccscccccccccc" />
    <path
       style="fill:#00ffff;stroke:#000000;stroke-width:0.97264087px;stroke-linecap:butt;stroke-linejoin:miter;stroke-opacity:1"
       d="m 199.00005,199.96014 -74.75129,-21.9796 -24.24366,-10.51199 6.06092,9.55635 -11.111681,-3.82254 5.050761,9.55635 -13.131981,-3.82254 26.263971,20.06833 12.12183,-6.68944 78.79189,22.93524 0,0"
       id="path5696"
       inkscape:connector-curvature="0" />
    <path
       style="fill:#ff0000;stroke:#000000;stroke-width:1px;stroke-linecap:butt;stroke-linejoin:miter;stroke-opacity:1"
       d="m 220.63167,262.12703 -55.55839,112.12693 46.46702,5.05076 4.04061,-15.15228 -26.26397,-5.05077 40.40611,-78.79189"
       id="path5698"
       inkscape:connector-curvature="0" />
    <path
       style="fill:#800080;stroke:#000000;stroke-width:1px;stroke-linecap:butt;stroke-linejoin:miter;stroke-opacity:1"
       d="m 264.95583,224.33296 68.69037,69.70052 -17.17259,-7.07106 38.3858,69.70052 25.25381,4.04061 -1.01015,20.20305 -40.4061,-3.03046 -44.44672,-77.78174 -1.01015,23.23351 -35.35534,-54.54824 -2.0203,94.95434 22.22335,5.05076 5.05077,13.13199 -42.42641,-3.03046 -23.42785,-121.01526"
       id="path5700"
       inkscape:connector-curvature="0"
       sodipodi:nodetypes="ccccccccccccccc" />
    <path
       style="fill:#ff0000;stroke:#000000;stroke-width:1px;stroke-linecap:butt;stroke-linejoin:miter;stroke-opacity:1"
       d="m 247.48737,183.63099 149.50258,-14.14213 12.12183,-20.20305 41.41626,1.01015 -1.01016,31.31473 -24.24366,3.03046 -4.45903,-3.08122 -26.8557,7.12183 -62.62946,12.12183 -80.8122,10.10152"
       id="path5702"
       inkscape:connector-curvature="0"
       sodipodi:nodetypes="cccccccccc" />
    <path
       style="fill:#ff0000;stroke:#000000;stroke-width:1px;stroke-linecap:butt;stroke-linejoin:miter;stroke-opacity:1"
       d="m 412.36152,148.86405 8.27175,-22.96729 4.1639,13.85084 5.65956,-17.68806 4.57224,18.88507 9.76861,-17.00788 1.30669,16.10953 10.85713,-16.08271 -9.0336,26.06949"
       id="path5704"
       inkscape:connector-curvature="0" />
    <path
       style="fill:#ff0000;stroke:#000000;stroke-width:1px;stroke-linecap:butt;stroke-linejoin:miter;stroke-opacity:1"
       d="m 407.17716,182.04363 -1.49284,20.72794 8.37331,-20.1138 1.91418,19.57542 8.65397,-19.95856 3.21734,15.56809 9.62599,-16.96916 3.66011,16.86899 7.48085,-16.26177"
       id="path5706"
       inkscape:connector-curvature="0"
       sodipodi:nodetypes="ccccccccc" />
    <path
       style="fill:#00ffff;stroke:#000000;stroke-width:1px;stroke-linecap:butt;stroke-linejoin:miter;stroke-opacity:1"
       d="m 449.76298,158.67304 30.30458,0 -2.02031,14.14214 -29.29442,-2.02031"
       id="path5708"
       inkscape:connector-curvature="0" />
    <path
       sodipodi:type="arc"
       style="fill:#ff0000;fill-opacity:1;fill-rule:nonzero;stroke:#000000;stroke-width:1;stroke-linecap:butt;stroke-miterlimit:4;stroke-opacity:1;stroke-dasharray:none"
       id="path5710"
       sodipodi:cx="224.25386"
       sodipodi:cy="74.029442"
       sodipodi:rx="6.0609155"
       sodipodi:ry="5.5558391"
       d="m 230.31478,74.029442 a 6.0609155,5.5558391 0 1 1 -12.12183,0 6.0609155,5.5558391 0 1 1 12.12183,0 z" />
    <path
       sodipodi:type="arc"
       style="fill:#000080;fill-opacity:1;fill-rule:nonzero;stroke:#000000;stroke-width:1;stroke-linecap:butt;stroke-miterlimit:4;stroke-opacity:1;stroke-dasharray:none"
       id="path5712"
       sodipodi:cx="245.97214"
       sodipodi:cy="76.554825"
       sodipodi:rx="5.5558391"
       sodipodi:ry="5.0507627"
       d="m 251.52798,76.554825 a 5.5558391,5.0507627 0 1 1 -11.11168,0 5.5558391,5.0507627 0 1 1 11.11168,0 z" />
    <path
       style="fill:none;stroke:#000000;stroke-width:1px;stroke-linecap:butt;stroke-linejoin:miter;stroke-opacity:1"
       d="m 221.42857,76.647896 -3.57143,46.428574"
       id="path5714"
       inkscape:connector-curvature="0" />
    <path
       style="fill:none;stroke:#000000;stroke-width:1px;stroke-linecap:butt;stroke-linejoin:miter;stroke-opacity:1"
       d="m 245,80.219324 -7.85714,43.571426"
       id="path5716"
       inkscape:connector-curvature="0" />
    <path
       sodipodi:type="arc"
       style="fill:#ffef00;fill-opacity:1;fill-rule:nonzero;stroke:#000000;stroke-width:1;stroke-linecap:butt;stroke-miterlimit:4;stroke-opacity:1;stroke-dasharray:none"
       id="path5718"
       sodipodi:cx="221.42857"
       sodipodi:cy="135.57646"
       sodipodi:rx="5"
       sodipodi:ry="4.6428571"
       d="m 226.42857,135.57646 a 5,4.6428571 0 1 1 -10,0 5,4.6428571 0 1 1 10,0 z"
       transform="translate(-5.7142857,0.71428572)" />
    <path
       sodipodi:type="arc"
       style="fill:#ffef00;fill-opacity:1;fill-rule:nonzero;stroke:#000000;stroke-width:1;stroke-linecap:butt;stroke-miterlimit:4;stroke-opacity:1;stroke-dasharray:none"
       id="path5720"
       sodipodi:cx="240"
       sodipodi:cy="138.07646"
       sodipodi:rx="5"
       sodipodi:ry="5"
       d="m 245,138.07646 a 5,5 0 1 1 -10,0 5,5 0 1 1 10,0 z"
       transform="translate(-3.5714286,-1.4285714)" />
    <path
       style="fill:#f9f9f9;stroke:#000000;stroke-width:1px;stroke-linecap:butt;stroke-linejoin:miter;stroke-opacity:1"
       d="m 205.15363,165.33784 31.08971,5.41746 0.27,-20.76174"
       id="path5722"
       inkscape:connector-curvature="0" />
    <path
       style="fill:none;stroke:#000000;stroke-width:0.6906814px;stroke-linecap:butt;stroke-linejoin:miter;stroke-opacity:1"
       d="m 220,168.07647 0,-9.54082"
       id="path5724"
       inkscape:connector-curvature="0" />
    <path
       sodipodi:type="star"
       style="fill:#aad400;fill-opacity:1;fill-rule:nonzero;stroke:#000000;stroke-width:1;stroke-linecap:butt;stroke-miterlimit:4;stroke-opacity:1;stroke-dasharray:none"
       id="path5726"
       sodipodi:sides="5"
       sodipodi:cx="216.42857"
       sodipodi:cy="205.93361"
       sodipodi:r1="13.552619"
       sodipodi:r2="6.7763095"
       sodipodi:arg1="-0.32175055"
       sodipodi:arg2="0.30656798"
       inkscape:flatsided="false"
       inkscape:rounded="0"
       inkscape:randomized="0"
       d="m 229.28572,201.64789 -6.39678,6.33073 1.58867,8.8585 -7.9976,-4.1274 -7.934,4.24834 1.45399,-8.88159 -6.49215,-6.23288 8.89621,-1.36174 3.92163,-8.10047 4.04417,8.04 z"
       inkscape:transform-center-x="0.031791933"
       inkscape:transform-center-y="-1.2638867"
       transform="translate(13.571429,8.5714286)" />
    <rect
       style="fill:#d35f5f;fill-opacity:1;fill-rule:nonzero;stroke:#000000;stroke-width:1;stroke-linecap:butt;stroke-miterlimit:4;stroke-opacity:1;stroke-dasharray:none"
       id="rect5728"
       width="32.142857"
       height="20"
       x="411.42856"
       y="155.21933"
       rx="4.4569998" />
    <path
       sodipodi:type="arc"
       style="fill:#800080;fill-opacity:1;fill-rule:nonzero;stroke:#000000;stroke-width:1;stroke-linecap:butt;stroke-miterlimit:4;stroke-opacity:1;stroke-dasharray:none"
       id="path5828"
       sodipodi:cx="217.1828"
       sodipodi:cy="136.15382"
       sodipodi:rx="1.0101526"
       sodipodi:ry="1.2626907"
       d="m 218.19295,136.15382 a 1.0101526,1.2626907 0 1 1 -2.0203,0 1.0101526,1.2626907 0 1 1 2.0203,0 z" />
    <path
       sodipodi:type="arc"
       style="fill:#800080;fill-opacity:1;fill-rule:nonzero;stroke:#000000;stroke-width:1;stroke-linecap:butt;stroke-miterlimit:4;stroke-opacity:1;stroke-dasharray:none"
       id="path5830"
       sodipodi:cx="235.87062"
       sodipodi:cy="136.53262"
       sodipodi:rx="1.2626907"
       sodipodi:ry="1.1364216"
       d="m 237.13331,136.53262 a 1.2626907,1.1364216 0 1 1 -2.52538,0 1.2626907,1.1364216 0 1 1 2.52538,0 z" />
    <path
       style="fill:#800000;stroke:#000000;stroke-width:1px;stroke-linecap:butt;stroke-linejoin:miter;stroke-opacity:1"
       d="m 544.9773,160.90256 13.63706,3.53554 -12.62691,4.54568 0,0"
       id="path6346"
       inkscape:connector-curvature="0" />
    <rect
       style="fill:#800000;fill-opacity:1;fill-rule:nonzero;stroke:#000000;stroke-width:0.61500001;stroke-linecap:butt;stroke-miterlimit:4;stroke-opacity:1;stroke-dasharray:none"
       id="rect5836"
       width="27.658985"
       height="8.9711561"
       x="517.51074"
       y="160.71013"
       rx="0"
       ry="0" />
  </g>
</svg>
