<?xml version="1.0" encoding="UTF-8" standalone="no"?>
<!-- Created with Inkscape (http://www.inkscape.org/) -->

<svg
   xmlns:dc="http://purl.org/dc/elements/1.1/"
   xmlns:cc="http://creativecommons.org/ns#"
   xmlns:rdf="http://www.w3.org/1999/02/22-rdf-syntax-ns#"
   xmlns:svg="http://www.w3.org/2000/svg"
   xmlns="http://www.w3.org/2000/svg"
   xmlns:sodipodi="http://sodipodi.sourceforge.net/DTD/sodipodi-0.dtd"
   xmlns:inkscape="http://www.inkscape.org/namespaces/inkscape"
   width="744.09448819"
   height="1052.3622047"
   id="svg7929"
   version="1.1"
   inkscape:version="0.48.2 r9819"
   sodipodi:docname="mars.svg"
   inkscape:export-filename="/Users/andy/Documents/Projects/Test/Aliens/gfx/bg_mars.png"
   inkscape:export-xdpi="95.800003"
   inkscape:export-ydpi="95.800003">
  <defs
     id="defs7931" />
  <sodipodi:namedview
     id="base"
     pagecolor="#ffffff"
     bordercolor="#666666"
     borderopacity="1.0"
     inkscape:pageopacity="0.0"
     inkscape:pageshadow="2"
     inkscape:zoom="0.98994949"
     inkscape:cx="409.69688"
     inkscape:cy="773.30879"
     inkscape:document-units="px"
     inkscape:current-layer="layer1"
     showgrid="false"
     inkscape:window-width="1237"
     inkscape:window-height="756"
     inkscape:window-x="43"
     inkscape:window-y="0"
     inkscape:window-maximized="0" />
  <metadata
     id="metadata7934">
    <rdf:RDF>
      <cc:Work
         rdf:about="">
        <dc:format>image/svg+xml</dc:format>
        <dc:type
           rdf:resource="http://purl.org/dc/dcmitype/StillImage" />
        <dc:title></dc:title>
      </cc:Work>
    </rdf:RDF>
  </metadata>
  <g
     inkscape:label="Layer 1"
     inkscape:groupmode="layer"
     id="layer1">
    <path
       style="fill:#ff2a2a;stroke:#000000;stroke-width:1px;stroke-linecap:butt;stroke-linejoin:miter;stroke-opacity:1"
       d="m -2.0203051,476.57523 25.2538141,5.05076 30.304576,0 27.274119,-11.11167 27.274116,2.0203 23.23351,-17.17259 12.12183,-12.12183 23.23351,-5.05076 c 0,0 14.14214,21.2132 42.42641,16.16244 28.28427,-5.05077 41.41625,-32.32489 41.41625,-32.32489 l 20.20305,3.03046 c 0,0 -9.09137,26.26397 17.1726,26.26397 26.26396,0 29.29442,-30.30458 29.29442,-30.30458 l 22.22336,0 c 0,0 -1.01016,21.21321 23.2335,22.22336 24.24366,1.01015 38.3858,-30.30458 38.3858,-30.30458 l 69.70053,-104.04571 79.80205,-19.1929 c 0,0 -12.12183,53.53809 62.62946,60.60915 74.75128,7.07107 66.67006,-34.34518 66.67006,-34.34518 l 23.23351,13.13198 40.4061,-17.17259 4.04061,251.52798 -750.5433376,3.03046 z"
       id="path7999"
       inkscape:connector-curvature="0" />
    <path
       style="fill:#ffff00;stroke:#000000;stroke-width:1px;stroke-linecap:butt;stroke-linejoin:miter;stroke-opacity:1"
       d="m 144.45181,444.25035 -20.20305,-60.60915 24.24366,29.29442 -3.03045,-30.30457 11.11167,-15.15229 3.03046,26.26396 8.08122,-15.15229 9.09138,-10.10152 -2.02031,30.30458 3.03046,17.17259 -6.06092,6.06091 -6.06091,20.20306 z"
       id="path8001"
       inkscape:connector-curvature="0" />
    <path
       style="fill:#ffff00;stroke:#000000;stroke-width:1px;stroke-linecap:butt;stroke-linejoin:miter;stroke-opacity:1"
       d="m 251.52798,424.0473 -12.12183,-48.48732 19.1929,22.22335 3.03046,-36.36549 8.08122,21.21321 17.17259,-24.24367 -16.16244,70.71068 z"
       id="path8003"
       inkscape:connector-curvature="0" />
    <path
       style="fill:#ffff00;stroke:#000000;stroke-width:1px;stroke-linecap:butt;stroke-linejoin:miter;stroke-opacity:1"
       d="m 316.17775,423.03715 -4.04061,-39.39595 14.14213,13.13198 5.05076,-28.28427 7.07107,18.18275 19.1929,-22.22336 -19.1929,59.599 z"
       id="path8005"
       inkscape:connector-curvature="0" />
    <path
       style="fill:#ffff00;stroke:#000000;stroke-width:1px;stroke-linecap:butt;stroke-linejoin:miter;stroke-opacity:1"
       d="m 470.73109,314.95082 -9.09138,-101.01525 -18.18274,-41.41625 6.06091,-15.15229 20.20305,7.07107 26.26397,28.28427 5.05076,-32.32488 13.13199,-25.25382 23.2335,31.31473 24.24367,-37.37564 14.14213,-2.02031 -10.10152,30.30458 5.05076,11.11168 -12.12183,39.39594 21.2132,-38.38579 -10.10152,57.57869 -23.23351,68.69038 z"
       id="path8007"
       inkscape:connector-curvature="0" />
    <path
       sodipodi:type="arc"
       style="fill:#ffff00;fill-opacity:1;fill-rule:nonzero;stroke:#000000;stroke-width:0.61500001;stroke-linecap:butt;stroke-miterlimit:4;stroke-opacity:1;stroke-dasharray:none"
       id="path8009"
       sodipodi:cx="147.98735"
       sodipodi:cy="475.06"
       sodipodi:rx="14.647212"
       sodipodi:ry="15.657365"
       d="m 154.88956,461.25004 a 14.647212,15.657365 0 1 1 -2.36801,-1.07831"
       sodipodi:start="5.2030742"
       sodipodi:end="11.310305"
       sodipodi:open="true" />
    <path
       sodipodi:type="arc"
       style="fill:#ffff00;fill-opacity:1;fill-rule:nonzero;stroke:#000000;stroke-width:0.61500001;stroke-linecap:butt;stroke-miterlimit:4;stroke-opacity:1;stroke-dasharray:none"
       id="path8011"
       sodipodi:cx="339.91632"
       sodipodi:cy="513.95087"
       sodipodi:rx="8.586297"
       sodipodi:ry="13.131983"
       d="m 343.96244,502.36832 a 8.586297,13.131983 0 0 0 -1.38814,-0.90439"
       sodipodi:start="5.2030742"
       sodipodi:end="5.0271197"
       sodipodi:open="true" />
    <path
       sodipodi:type="arc"
       style="fill:#ffff00;fill-opacity:1;fill-rule:nonzero;stroke:#000000;stroke-width:0.61500001;stroke-linecap:butt;stroke-miterlimit:4;stroke-opacity:1;stroke-dasharray:none"
       id="path8013"
       sodipodi:cx="484.87323"
       sodipodi:cy="450.31128"
       sodipodi:rx="8.0812206"
       sodipodi:ry="11.111678"
       d="m 488.68135,440.51067 a 8.0812206,11.111678 0 1 1 -1.30649,-0.76526"
       sodipodi:start="5.2030742"
       sodipodi:end="11.310305"
       sodipodi:open="true" />
    <path
       sodipodi:type="arc"
       style="fill:#ffff00;fill-opacity:1;fill-rule:nonzero;stroke:#000000;stroke-width:0.61500001;stroke-linecap:butt;stroke-miterlimit:4;stroke-opacity:1;stroke-dasharray:none"
       id="path8018"
       sodipodi:cx="557.60419"
       sodipodi:cy="427.58282"
       sodipodi:rx="12.121831"
       sodipodi:ry="14.647212"
       d="m 563.31636,414.66383 a 12.121831,14.647212 0 1 1 -1.95973,-1.00874"
       sodipodi:start="5.2030742"
       sodipodi:end="11.310305"
       sodipodi:open="true" />
    <path
       sodipodi:type="arc"
       style="fill:#008080;fill-opacity:1;fill-rule:nonzero;stroke:#000000;stroke-width:0.61500001000000004;stroke-linecap:butt;stroke-miterlimit:4;stroke-opacity:1;stroke-dasharray:none"
       id="path8020"
       sodipodi:cx="615.68799"
       sodipodi:cy="485.16153"
       sodipodi:rx="33.840111"
       sodipodi:ry="29.7995"
       d="m 631.63448,458.87807 a 33.840111,29.7995 0 0 0 -5.47093,-2.05228"
       sodipodi:start="5.2030742"
       sodipodi:end="5.0271197"
       sodipodi:open="true" />
    <path
       sodipodi:type="arc"
       style="fill:#ffff00;fill-opacity:1;fill-rule:nonzero;stroke:#000000;stroke-width:0.61500001;stroke-linecap:butt;stroke-miterlimit:4;stroke-opacity:1;stroke-dasharray:none"
       id="path8022"
       sodipodi:cx="699.53064"
       sodipodi:cy="419.50162"
       sodipodi:rx="9.5964489"
       sodipodi:ry="7.5761442"
       d="m 704.05278,412.81938 a 9.5964489,7.5761442 0 1 1 -1.55146,-0.52176"
       sodipodi:start="5.2030742"
       sodipodi:end="11.310305"
       sodipodi:open="true" />
    <path
       sodipodi:type="arc"
       style="fill:#ffff00;fill-opacity:1;fill-rule:nonzero;stroke:#000000;stroke-width:0.61500001;stroke-linecap:butt;stroke-miterlimit:4;stroke-opacity:1;stroke-dasharray:none"
       id="path8024"
       sodipodi:cx="414.16254"
       sodipodi:cy="515.97119"
       sodipodi:rx="10.101525"
       sodipodi:ry="8.0812206"
       d="m 418.92268,508.84347 a 10.101525,8.0812206 0 1 1 -1.63311,-0.55655"
       sodipodi:start="5.2030742"
       sodipodi:end="11.310305"
       sodipodi:open="true" />
    <path
       sodipodi:type="arc"
       style="fill:#2b0000;fill-opacity:1;fill-rule:nonzero;stroke:#000000;stroke-width:0.61500001000000004;stroke-linecap:butt;stroke-miterlimit:4;stroke-opacity:1;stroke-dasharray:none"
       id="path8026"
       sodipodi:cx="617.20319"
       sodipodi:cy="474.04984"
       sodipodi:rx="5.0507627"
       sodipodi:ry="4.5456862"
       d="m 619.58326,470.04049 a 5.0507627,4.5456862 0 1 1 -0.81656,-0.31306"
       sodipodi:start="5.2030742"
       sodipodi:end="11.310305"
       sodipodi:open="true" />
    <path
       sodipodi:type="arc"
       style="fill:#241c1c;fill-opacity:1;fill-rule:nonzero;stroke:#000000;stroke-width:0.61500001000000004;stroke-linecap:butt;stroke-miterlimit:4;stroke-opacity:1;stroke-dasharray:none"
       id="path8028"
       sodipodi:cx="620.23364"
       sodipodi:cy="501.82904"
       sodipodi:rx="5.0507627"
       sodipodi:ry="4.0406103"
       d="m 622.61372,498.26518 a 5.0507627,4.0406103 0 1 1 -0.81656,-0.27827"
       sodipodi:start="5.2030742"
       sodipodi:end="11.310305"
       sodipodi:open="true" />
    <path
       sodipodi:type="arc"
       style="fill:#2b1100;fill-opacity:1;fill-rule:nonzero;stroke:#000000;stroke-width:0.61500001000000004;stroke-linecap:butt;stroke-miterlimit:4;stroke-opacity:1;stroke-dasharray:none"
       id="path8030"
       sodipodi:cx="629.32501"
       sodipodi:cy="487.18182"
       sodipodi:rx="3.0304577"
       sodipodi:ry="3.5355339"
       d="m 630.75306,484.06345 a 3.0304577,3.5355339 0 1 1 -0.48994,-0.24349"
       sodipodi:start="5.2030742"
       sodipodi:end="11.310305"
       sodipodi:open="true" />
    <path
       sodipodi:type="arc"
       style="fill:#2b1100;fill-opacity:1;fill-rule:nonzero;stroke:#000000;stroke-width:0.61500001000000004;stroke-linecap:butt;stroke-miterlimit:4;stroke-opacity:1;stroke-dasharray:none"
       id="path8032"
       sodipodi:cx="602.0509"
       sodipodi:cy="484.15137"
       sodipodi:rx="5.0507627"
       sodipodi:ry="4.5456862"
       d="m 604.43098,480.14203 a 5.0507627,4.5456862 0 1 1 -0.81656,-0.31306"
       sodipodi:start="5.2030742"
       sodipodi:end="11.310305"
       sodipodi:open="true" />
  </g>
</svg>
