<?xml version="1.0" encoding="UTF-8" standalone="no"?>
<!-- Created with Inkscape (http://www.inkscape.org/) -->

<svg
   xmlns:dc="http://purl.org/dc/elements/1.1/"
   xmlns:cc="http://creativecommons.org/ns#"
   xmlns:rdf="http://www.w3.org/1999/02/22-rdf-syntax-ns#"
   xmlns:svg="http://www.w3.org/2000/svg"
   xmlns="http://www.w3.org/2000/svg"
   xmlns:sodipodi="http://sodipodi.sourceforge.net/DTD/sodipodi-0.dtd"
   xmlns:inkscape="http://www.inkscape.org/namespaces/inkscape"
   width="744.09448819"
   height="1052.3622047"
   id="svg8832"
   version="1.1"
   inkscape:version="0.48.2 r9819"
   sodipodi:docname="name.svg">
  <defs
     id="defs8834" />
  <sodipodi:namedview
     id="base"
     pagecolor="#ffffff"
     bordercolor="#666666"
     borderopacity="1.0"
     inkscape:pageopacity="0.0"
     inkscape:pageshadow="2"
     inkscape:zoom="0.7"
     inkscape:cx="161.76069"
     inkscape:cy="716.29985"
     inkscape:document-units="px"
     inkscape:current-layer="layer1"
     showgrid="false"
     inkscape:window-width="1236"
     inkscape:window-height="756"
     inkscape:window-x="44"
     inkscape:window-y="0"
     inkscape:window-maximized="1" />
  <metadata
     id="metadata8837">
    <rdf:RDF>
      <cc:Work
         rdf:about="">
        <dc:format>image/svg+xml</dc:format>
        <dc:type
           rdf:resource="http://purl.org/dc/dcmitype/StillImage" />
        <dc:title></dc:title>
      </cc:Work>
    </rdf:RDF>
  </metadata>
  <g
     inkscape:label="Layer 1"
     inkscape:groupmode="layer"
     id="layer1">
    <text
       xml:space="preserve"
       style="font-size:40px;font-style:normal;font-weight:normal;line-height:125%;letter-spacing:0px;word-spacing:0px;fill:#000000;fill-opacity:1;stroke:none;font-family:Sans"
       x="162.85715"
       y="672.36218"
       id="text8918"
       sodipodi:linespacing="125%"><tspan
         sodipodi:role="line"
         id="tspan8920"
         x="162.85715"
         y="672.36218" /></text>
    <path
       style="fill:#483737;stroke:#000000;stroke-width:0.57644843999999995px;stroke-linecap:butt;stroke-linejoin:miter;stroke-opacity:1"
       d="m 32.848159,117.11073 c 9.16802,0 18.33605,0 27.50408,0 2.54667,0 5.20596,0.87013 7.64002,0 4.35418,-1.55654 7.85352,-5.60757 12.22403,-7.10101 4.42481,-1.512 9.21421,-0.8167 13.75204,-1.77526 6.685761,-1.41229 13.182291,-3.88817 19.864051,-5.32576 7.08266,-1.52383 14.27274,-2.27799 21.39207,-3.550501 14.19788,-2.53773 19.76003,-4.47849 33.61609,-5.32576 4.57768,-0.27991 9.16803,0 13.75204,0 5.60268,0 11.20536,0 16.80805,0 11.7147,0 23.4294,0 35.1441,0 4.58401,0 9.16803,0 13.75204,0 3.56534,0 7.143,0.344 10.69603,0 0.0135,-10e-4 15.1941,-3.53235 15.28004,-3.55051 9.64567,-2.03753 19.3677,-3.45439 29.03208,-5.32575 2.56178,-0.49605 5.0588,-1.44205 7.64003,-1.77526 9.24143,-1.19298 5.39655,0.83769 15.28004,7.10101 0.56572,0.35851 10.07026,4.82531 12.22404,5.32576 1.49833,0.34815 3.13441,-0.56139 4.58401,0 13.07584,5.063891 -16.2241,-3.20409 10.69603,5.325761 6.27978,1.9898 17.1613,2.36981 22.92006,3.55051 4.13617,0.84802 8.06617,2.86041 12.22404,3.5505 3.02529,0.50212 6.12257,-0.29485 9.16802,0 6.17492,0.59785 12.16518,2.89874 18.33605,3.55051 2.53622,0.26787 5.10381,-0.26787 7.64003,0 3.08543,0.32588 6.07898,1.49918 9.16802,1.77525 3.55484,0.3177 7.13069,0 10.69603,0 6.62136,0 13.24271,0 19.86407,0 3.05602,0 6.11198,0 9.168,0 1.52803,0 3.06783,-0.22019 4.58405,0 3.0742,0.44646 6.09701,1.29954 9.168,1.77525 4.57175,0.70821 9.2188,0.78774 13.75204,1.77526 3.64451,0.79391 7.03847,2.84227 10.69603,3.5505 2.51202,0.48642 5.13442,-0.52927 7.64002,0 3.16934,0.66949 5.99052,2.93523 9.16805,3.55051 0.67229,0.13018 15.31398,-0.10849 16.80801,0 5.61482,0.40771 11.19093,1.41269 16.80806,1.77525 3.55985,0.22977 7.1412,-0.3177 10.69603,0 3.08907,0.27607 6.08882,1.37776 9.16805,1.77525 1.51862,0.19605 3.05602,0 4.584,0 3.56536,0 7.13067,0 10.69603,0 1.01869,0 2.08963,-0.37425 3.05601,0 0.68332,0.26464 0.84467,1.51062 1.52798,1.77526 0.96639,0.37426 2.03738,0 3.05602,0 1.01869,0 2.03733,0 3.05602,0 1.52798,0 3.05601,0 4.58399,0 2.03738,0 4.09519,0.33474 6.11204,0 1.59445,-0.26464 2.98954,-1.51062 4.584,-1.77526 2.01689,-0.33474 4.09518,0.33475 6.11203,0 1.59445,-0.26463 3.00462,-1.40826 4.584,-1.77525 0.9989,-0.2321 2.06775,0.28704 3.05601,0 1.1049,-0.32092 1.95112,-1.45433 3.05602,-1.77525 1.48236,-0.43056 3.05601,0 4.584,0 3.05601,0 6.11203,0 9.16804,0 0.50935,0 1.01864,0 1.52799,0 0.50934,0 1.07243,0.26464 1.52803,0 0.64422,-0.37426 0.84467,-1.51062 1.52798,-1.77525 0.96639,-0.37426 2.03733,0 3.05602,0 2.03733,0 4.11423,-0.46421 6.11203,0 2.23355,0.519 3.90218,2.90866 6.11198,3.5505 8.6587,0 0.50935,-1.1835 3.05602,1.77525 0.36019,0.41844 1.16784,-0.41843 1.52803,0 0.36014,0.41844 0,1.18351 0,1.77526 0,0.59175 0,1.1835 0,1.77525 0,2.95875 0.80531,6.06934 0,8.87626 -0.4556,1.58784 -2.19167,2.21153 -3.05601,3.55051 -0.68337,1.05856 -0.89628,2.44954 -1.52804,3.55051 -0.39955,0.69631 -1.12843,1.07893 -1.52798,1.77525 -1.26352,2.20193 -2.03733,4.73401 -3.05602,7.10101 -1.01863,2.367 -2.21006,4.6439 -3.05601,7.10101 -4.70326,13.66084 -1.0142,8.10652 -7.64002,21.30304 -1.85062,3.68589 -4.22231,6.99244 -6.11203,10.65151 -1.17191,2.26927 -2.03733,4.73401 -3.05596,7.10101 -1.01869,2.36701 -2.25622,4.62312 -3.05602,7.10102 -3.10377,9.61592 -0.4787,4.44911 -1.52803,14.20202 -1.038,9.64795 -2.87119,5.05343 -1.52799,15.97727 0.68412,5.56383 13.81238,19.59789 16.80807,23.07829 1.52798,1.77525 3.05596,3.55051 4.58399,5.32576 2.03733,2.367 4.43731,4.37708 6.11204,7.10101 0.93617,1.52273 0.63454,3.76876 1.52798,5.32576 0.28253,0.49237 1.16785,-0.41843 1.52798,0 1.04543,1.21458 -1.88015,5.1885 -3.05596,7.10101 -1.48023,2.40764 -3.10383,4.69338 -4.58405,7.10102 -1.06741,1.73617 -1.90876,3.6597 -3.05602,5.32575 -0.89991,1.30697 -2.03733,2.36701 -3.05596,3.55051 -0.50935,0.59175 -1.30027,0.98134 -1.52804,1.77525 -0.32211,1.12278 0.32217,2.42774 0,3.55051 -0.72032,2.51059 -2.33569,4.59043 -3.05601,7.10101 -1.32818,4.62929 -1.9738,9.48708 -3.05602,14.20202 -0.95537,4.16256 -2.27906,8.21439 -3.05596,12.42675 -0.75466,4.09145 -0.58042,8.38993 -1.52804,12.42677 -0.5993,2.55314 -2.15872,4.66861 -3.05601,7.10103 -0.63444,1.71999 -1.01864,3.55051 -1.52799,5.32574 -0.50934,1.77529 -1.21212,3.49087 -1.52803,5.3258 -0.19975,1.16048 0,2.36699 0,3.55052 0,2.36699 0,4.73398 0,7.10097 0,1.77528 0,3.55051 0,5.3258 0,1.18346 -0.24703,2.40228 0,3.55045 0.75792,3.52206 4.01754,6.92954 6.11203,8.87632 0.88932,0.82657 2.25071,0.83961 3.05602,1.77523 0.8053,0.93561 0.89627,2.44956 1.52798,3.55051 0.3996,0.69627 1.30026,0.98134 1.52803,1.77523 0.32212,1.12276 0,2.36699 0,3.55051 0,2.95875 0.36014,5.94727 0,8.87626 -0.16108,1.3099 -1.16784,2.29522 -1.52803,3.55051 -0.16103,0.56138 0.22783,1.24597 0,1.77529 -0.32211,0.74846 -1.20587,1.0267 -1.52798,1.77523 -0.22777,0.52925 0,1.18352 0,1.77522 -1.01869,1.18353 -2.03733,2.36705 -3.05602,3.55052 -0.50934,0.59176 -1.01863,1.18352 -1.52798,1.77529 -0.50934,0.5917 -0.84466,1.51059 -1.52803,1.77522 -0.10178,0.0392 -5.81645,-0.0379 -6.11198,0 -3.57954,0.46209 -7.10249,1.49693 -10.69603,1.77529 -4.06567,0.31489 -8.14936,0 -12.22407,0 -4.07465,0 -8.14936,0 -12.22401,0 -14.26139,0 -28.52278,0 -42.78412,0 -5.09335,0 -10.19305,0.29551 -15.28008,0 -5.11233,-0.297 -10.17123,-1.40429 -15.28003,-1.77529 -3.05003,-0.22144 -6.11204,0 -9.168,0 -5.60269,0 -11.20537,0 -16.80806,0 -3.00083,0 -11.28651,-0.40921 -13.75205,0 -3.99293,0.66272 -9.48796,4.87583 -12.22401,7.10103 -2.67181,2.17288 -4.87445,5.0928 -7.64007,7.10103 -1.36583,0.99172 -3.14335,0.93835 -4.58399,1.77523 -0.64428,0.37423 -1.01864,1.18352 -1.52799,1.77522 -1.01869,1.18353 -1.85736,2.62211 -3.05601,3.55052 -0.42378,0.32825 -1.16785,-0.41841 -1.52804,0 -0.8053,0.93567 -0.72267,2.6149 -1.52798,3.55051 -0.36016,0.41841 -1.07244,-0.26463 -1.528,0 -0.64427,0.37423 -0.88374,1.401 -1.52801,1.77529 -0.64891,0.37691 -8.63331,-0.0777 -9.16802,0 -2.57706,0.37423 -5.06902,1.34849 -7.64003,1.77523 -1.00843,0.16739 -2.03733,0 -3.056,0 -3.05601,0 -6.11202,0 -9.16803,0 -1.01867,0 -2.04758,-0.16739 -3.05601,0 -3.06702,0.50906 -6.07899,1.49916 -9.16802,1.77522 -3.55484,0.31769 -7.16413,-0.56597 -10.69603,0 -11.28226,1.80804 -22.47984,4.32856 -33.6161,7.10103 -54.98104,13.68809 -7.75172,4.54242 -53.48015,14.20206 -19.7079,4.16303 -33.65298,6.71667 -53.48016,8.87626 -7.62354,0.83035 -15.29868,0.91834 -22.92006,1.77522 -8.17458,0.91909 -16.27889,2.56868 -24.44807,3.55052 -18.54692,2.22911 -18.12826,1.77522 -35.1441,1.77522 -2.03734,0 -4.07468,0 -6.11202,0 -1.01867,0 -2.03734,0 -3.05601,0 -0.50933,0 -1.16784,0.41848 -1.528,0 -0.49538,-0.57548 0.48491,-7.74952 0,-8.87625 -0.82128,-1.90832 -2.3326,-3.36467 -3.05601,-5.32574 -0.82725,-2.2426 -0.48609,-4.98264 -1.528,-7.10103 -1.35174,-2.74831 -6.63649,-7.40567 -9.16803,-8.87626 -1.44062,-0.83688 -3.08856,-1.08026 -4.58401,-1.77522 -2.1149,-0.9829 -3.90222,-2.90868 -6.11202,-3.55052 -0.98826,-0.28706 -2.08962,0.37423 -3.05601,0 -0.68334,-0.26463 -0.88374,-1.40099 -1.528,-1.77529 -0.87886,-0.51049 -6.15646,0.43096 -7.64003,0 -1.56256,-0.45382 -2.97996,-1.60578 -4.58401,-1.77522 -15.63716,-1.65158 -8.35683,2.12932 -22.92006,-1.77523 -14.196311,-3.80619 -5.252691,-1.02651 -12.224031,-7.10103 -1.82225,-1.58783 -4.18044,-2.1479 -6.11202,-3.55051 -6.22917,-4.52322 -12.22404,-9.46802 -18.33605,-14.202 -4.48156,-3.47117 -4.10706,-3.85584 -9.16803,-5.3258 -2.24929,-0.65328 -2.91991,1.12481 -4.58401,-1.77523 -1.98357,-3.45682 -1.52801,-3.25793 -1.52801,-7.10103 0,-1.18352 0.24707,-2.40234 0,-3.55051 -0.27622,-1.28369 -1.34076,-2.24527 -1.528,-3.55052 -0.33493,-2.3348 0,-4.73398 0,-7.10096 0,-2.95876 0.23056,-5.92969 0,-8.87626 -0.28049,-3.58475 -1.01867,-7.10103 -1.528,-10.65154 -1.01867,-7.10103 -2.17972,-14.17646 -3.05601,-21.30303 -0.58073,-4.72292 -0.46994,-9.59229 -1.52801,-14.20206 -1.94787,-8.48643 -7.1626,-17.32739 -10.69603,-24.85352 -1.09073,-2.32325 -2.03734,-4.734 -3.05601,-7.10101 -1.01867,-2.367 -2.33569,-4.59042 -3.056,-7.10101 -0.16107,-0.56138 0,-1.1835 0,-1.77525 0,-1.77525 0,-3.55051 0,-5.32576 0,-8.28451 0,-16.56903 0,-24.85354 0,-13.01852 0,-26.03705 0,-39.05557 0,-2.95875 0,-5.91751 0,-8.87626 0,-1.1835 -0.24707,-2.40234 0,-3.55051 0.27622,-1.28368 1.34077,-2.24531 1.528,-3.5505 0.33494,-2.3348 0,-4.73401 0,-7.10101 0,-2.95876 0,-5.91751 0,-8.87627 0,-12.42677 0,-24.85354 0,-37.28031 0,-4.14226 0,-8.28451 0,-12.42677 0,-2.367 0,-4.73401 0,-7.10101 0,-1.1835 -0.32213,-2.42774 0,-3.55051 0.22778,-0.79391 1.20587,-1.02674 1.528,-1.77525 0.19754,-0.45899 0,-9.39321 0,-10.65152 0,-1.77525 0,-3.5505 0,-5.32575 0,-0.59176 -0.50933,-1.77526 0,-1.77526 0.50934,0 -0.50933,1.77526 0,1.77526 0.72031,0 1.01867,-1.18351 1.52801,-1.77526 5.06775,-5.88777 -0.72031,1.67373 1.528,-3.5505 0.32214,-0.74852 1.20587,-1.02674 1.52801,-1.77526 0.22778,-0.52927 -0.50934,-1.77525 0,-1.77525 0.50933,0 0.18916,2.32468 0,1.77525 -1.19637,-3.47488 -2.03734,-7.10101 -3.05601,-10.65151 z"
       id="path8930"
       inkscape:connector-curvature="0" />
    <text
       xml:space="preserve"
       style="font-size:48.81813049px;font-style:normal;font-weight:normal;line-height:125%;letter-spacing:0px;word-spacing:0px;fill:#000000;fill-opacity:1;stroke:none;font-family:Sans"
       x="309.04184"
       y="267.30432"
       id="text8922"
       sodipodi:linespacing="127%"
       transform="scale(1.0909078,0.91666776)"><tspan
         sodipodi:role="line"
         id="tspan8924"
         x="309.04184"
         y="267.30432"
         style="font-size:59.04775620000000202px;font-style:normal;font-variant:normal;font-weight:normal;font-stretch:normal;text-align:center;text-anchor:middle;fill:#ff0000;font-family:Verdana;-inkscape-font-specification:Verdana;line-height:127%;letter-spacing:-3.17001029px">Инопланетяне</tspan><tspan
         sodipodi:role="line"
         x="309.04184"
         y="336.24387"
         id="tspan8926"
         style="text-align:center;text-anchor:middle;fill:#ffff00;line-height:127%;letter-spacing:-3.17001029px">и</tspan><tspan
         sodipodi:role="line"
         x="309.04184"
         y="407.84448"
         id="tspan8928"
         style="font-size:59.04775620000000202px;text-align:center;text-anchor:middle;fill:#00ff00;line-height:127%;letter-spacing:-3.17001029px">земляне</tspan></text>
  </g>
  <g
     inkscape:groupmode="layer"
     id="layer2"
     inkscape:label="Слой" />
</svg>
