<?xml version="1.0" encoding="UTF-8" standalone="no"?>
<!-- Created with Inkscape (http://www.inkscape.org/) -->

<svg
   xmlns:dc="http://purl.org/dc/elements/1.1/"
   xmlns:cc="http://creativecommons.org/ns#"
   xmlns:rdf="http://www.w3.org/1999/02/22-rdf-syntax-ns#"
   xmlns:svg="http://www.w3.org/2000/svg"
   xmlns="http://www.w3.org/2000/svg"
   xmlns:sodipodi="http://sodipodi.sourceforge.net/DTD/sodipodi-0.dtd"
   xmlns:inkscape="http://www.inkscape.org/namespaces/inkscape"
   width="744.09448819"
   height="1052.3622047"
   id="svg8692"
   version="1.1"
   inkscape:version="0.48.2 r9819"
   sodipodi:docname="venera.svg">
  <defs
     id="defs8694" />
  <sodipodi:namedview
     id="base"
     pagecolor="#ffffff"
     bordercolor="#666666"
     borderopacity="1.0"
     inkscape:pageopacity="0.0"
     inkscape:pageshadow="2"
     inkscape:zoom="0.98994949"
     inkscape:cx="355.89837"
     inkscape:cy="881.03112"
     inkscape:document-units="px"
     inkscape:current-layer="layer1"
     showgrid="false"
     inkscape:window-width="1236"
     inkscape:window-height="756"
     inkscape:window-x="44"
     inkscape:window-y="0"
     inkscape:window-maximized="1" />
  <metadata
     id="metadata8697">
    <rdf:RDF>
      <cc:Work
         rdf:about="">
        <dc:format>image/svg+xml</dc:format>
        <dc:type
           rdf:resource="http://purl.org/dc/dcmitype/StillImage" />
        <dc:title></dc:title>
      </cc:Work>
    </rdf:RDF>
  </metadata>
  <g
     inkscape:label="Layer 1"
     inkscape:groupmode="layer"
     id="layer1">
    <path
       style="fill:#ff6600;stroke:#000000;stroke-width:1px;stroke-linecap:butt;stroke-linejoin:miter;stroke-opacity:1"
       d="m 15.152288,245.2503 c 0,0 58.588848,-70.71068 158.593952,-65.65992 100.0051,5.05077 124.24876,84.85282 124.24876,84.85282 0,0 22.22336,48.48732 93.94419,35.35534 71.72083,-13.13199 166.67517,-71.72083 166.67517,-71.72083 0,0 36.36549,-22.22336 91.92388,-9.09138 55.55839,13.13199 101.01525,77.78175 101.01525,77.78175 l 0,65.65991 -736.401202,-3.03045 z"
       id="path8762"
       inkscape:connector-curvature="0"
       inkscape:export-filename="/Users/andy/Documents/Projects/Test/Aliens/gfx/bg_venera.png"
       inkscape:export-xdpi="97.639999"
       inkscape:export-ydpi="97.639999" />
    <path
       sodipodi:type="arc"
       style="fill:#ff0000;fill-opacity:1;fill-rule:nonzero;stroke:#000000;stroke-width:0.61500001000000004;stroke-linecap:butt;stroke-miterlimit:4;stroke-opacity:1;stroke-dasharray:none"
       id="path8764"
       sodipodi:cx="91.923882"
       sodipodi:cy="267.47366"
       sodipodi:rx="6.0609155"
       sodipodi:ry="6.0609155"
       d="m 97.984797,267.47366 a 6.0609155,6.0609155 0 1 1 -12.121831,0 6.0609155,6.0609155 0 1 1 12.121831,0 z" />
    <path
       sodipodi:type="arc"
       style="fill:#ffff00;fill-opacity:1;fill-rule:nonzero;stroke:#000000;stroke-width:0.61500001000000004;stroke-linecap:butt;stroke-miterlimit:4;stroke-opacity:1;stroke-dasharray:none"
       id="path8766"
       sodipodi:cx="211.12189"
       sodipodi:cy="275.55487"
       sodipodi:rx="8.0812206"
       sodipodi:ry="8.0812206"
       d="m 219.20311,275.55487 a 8.0812206,8.0812206 0 1 1 -16.16244,0 8.0812206,8.0812206 0 1 1 16.16244,0 z" />
    <path
       sodipodi:type="arc"
       style="fill:#ff0000;fill-opacity:1;fill-rule:nonzero;stroke:#000000;stroke-width:0.61500001000000004;stroke-linecap:butt;stroke-miterlimit:4;stroke-opacity:1;stroke-dasharray:none"
       id="path8768"
       sodipodi:cx="562.65497"
       sodipodi:cy="306.36453"
       sodipodi:rx="11.111678"
       sodipodi:ry="12.626906"
       d="m 573.76665,306.36453 a 11.111678,12.626906 0 1 1 -22.22336,0 11.111678,12.626906 0 1 1 22.22336,0 z" />
    <path
       sodipodi:type="arc"
       style="fill:#ffff00;fill-opacity:1;fill-rule:nonzero;stroke:#000000;stroke-width:0.61500001000000004;stroke-linecap:butt;stroke-miterlimit:4;stroke-opacity:1;stroke-dasharray:none"
       id="path8770"
       sodipodi:cx="635.89105"
       sodipodi:cy="280.60565"
       sodipodi:rx="7.5761442"
       sodipodi:ry="8.0812206"
       d="m 643.4672,280.60565 a 7.5761442,8.0812206 0 1 1 -15.15229,0 7.5761442,8.0812206 0 1 1 15.15229,0 z" />
    <path
       sodipodi:type="arc"
       style="fill:#ffff00;fill-opacity:1;fill-rule:nonzero;stroke:#000000;stroke-width:0.61500001000000004;stroke-linecap:butt;stroke-miterlimit:4;stroke-opacity:1;stroke-dasharray:none"
       id="path8772"
       sodipodi:cx="448.00266"
       sodipodi:cy="333.63864"
       sodipodi:rx="7.5761442"
       sodipodi:ry="7.5761442"
       d="m 455.5788,333.63864 a 7.5761442,7.5761442 0 1 1 -15.15229,0 7.5761442,7.5761442 0 1 1 15.15229,0 z" />
    <path
       sodipodi:type="arc"
       style="fill:#ff0000;fill-opacity:1;fill-rule:nonzero;stroke:#000000;stroke-width:0.61500001000000004;stroke-linecap:butt;stroke-miterlimit:4;stroke-opacity:1;stroke-dasharray:none"
       id="path8774"
       sodipodi:cx="304.561"
       sodipodi:cy="328.08279"
       sodipodi:rx="13.637059"
       sodipodi:ry="9.0913725"
       d="m 318.19806,328.08279 a 13.637059,9.0913725 0 1 1 -27.27411,0 13.637059,9.0913725 0 1 1 27.27411,0 z" />
    <path
       sodipodi:type="arc"
       style="fill:#ff0000;fill-opacity:1;fill-rule:nonzero;stroke:#000000;stroke-width:0.61500001000000004;stroke-linecap:butt;stroke-miterlimit:4;stroke-opacity:1;stroke-dasharray:none"
       id="path8776"
       sodipodi:cx="162.12949"
       sodipodi:cy="213.4305"
       sodipodi:rx="9.5964489"
       sodipodi:ry="8.586297"
       d="m 171.72593,213.4305 a 9.5964489,8.586297 0 1 1 -19.19289,0 9.5964489,8.586297 0 1 1 19.19289,0 z" />
    <path
       sodipodi:type="arc"
       style="fill:#ff6600;fill-opacity:1;fill-rule:nonzero;stroke:#000000;stroke-width:0.61500001;stroke-linecap:butt;stroke-miterlimit:4;stroke-opacity:1;stroke-dasharray:none"
       id="path8778"
       sodipodi:cx="246.47722"
       sodipodi:cy="209.89496"
       sodipodi:rx="17.172594"
       sodipodi:ry="1.0101526"
       d="m 263.64981,209.89496 a 17.172594,1.0101526 0 1 1 -34.34519,0 17.172594,1.0101526 0 1 1 34.34519,0 z" />
  </g>
</svg>
